<svg width="16" height="16" viewBox="0 0 16 16" fill="none" xmlns="http://www.w3.org/2000/svg">
<path d="M15.291 12.411L12.8255 9.9422C13.2738 9.04444 13.5726 7.99706 13.5726 6.94968C13.5726 3.43347 10.7337 0.590576 7.22235 0.590576C3.71102 0.590576 0.87207 3.43347 0.87207 6.94968C0.87207 10.4659 3.71102 13.3088 7.22235 13.3088C8.26828 13.3088 9.31421 13.0095 10.2107 12.5606L12.6761 15.0295C13.4232 15.7776 14.5439 15.7776 15.291 15.0295C15.9633 14.2813 15.9633 13.1592 15.291 12.411ZM7.22235 11.8125C4.53282 11.8125 2.36625 9.64294 2.36625 6.94968C2.36625 4.25641 4.53282 2.08684 7.22235 2.08684C9.91189 2.08684 12.0785 4.25641 12.0785 6.94968C12.0785 9.64294 9.91189 11.8125 7.22235 11.8125Z" fill="#4BA9FF"/>
</svg>
