<svg width="26" height="25" viewBox="0 0 26 25" fill="none" xmlns="http://www.w3.org/2000/svg">
<path d="M13.2501 13.2386C16.3457 13.2386 18.8555 10.3012 18.8555 6.67782C18.8555 1.65312 16.3458 0.117065 13.2501 0.117065C10.1543 0.117065 7.64478 1.65312 7.64478 6.67782C7.64484 10.3012 10.1543 13.2386 13.2501 13.2386Z" fill="#4BA9FF"/>
<path d="M25.6278 22.8953L22.7999 16.5248C22.6705 16.2333 22.4433 15.9915 22.1605 15.8443L17.7716 13.5596C17.6749 13.5093 17.5577 13.5191 17.4707 13.585C16.2293 14.5238 14.7698 15.0201 13.2501 15.0201C11.7301 15.0201 10.2707 14.5238 9.02942 13.585C8.94217 13.5191 8.82498 13.5093 8.72819 13.5596L4.33967 15.8443C4.05672 15.9915 3.82973 16.2332 3.70026 16.5248L0.872298 22.8953C0.677327 23.3345 0.717287 23.837 0.979223 24.2398C1.24104 24.6426 1.68414 24.8829 2.16457 24.8829H24.3354C24.8159 24.8829 25.2591 24.6424 25.5209 24.2397C25.7827 23.837 25.8228 23.3343 25.6278 22.8953Z" fill="#4BA9FF"/>
</svg>
