<svg width="368" height="368" viewBox="0 0 368 368" fill="none" xmlns="http://www.w3.org/2000/svg">
<path d="M184 0C82.544 0 0 82.544 0 184C0 285.456 82.544 368 184 368C285.464 368 368 285.456 368 184C368 82.544 285.464 0 184 0ZM184 352C91.36 352 16 276.64 16 184C16 91.36 91.36 16 184 16C276.632 16 352 91.36 352 184C352 276.64 276.632 352 184 352Z" fill="#4BA9FF" fill-opacity="0.2"/>
<path d="M144 152C144 138.768 133.232 128 120 128C106.768 128 96 138.768 96 152C96 165.232 106.768 176 120 176C133.232 176 144 165.232 144 152ZM112 152C112 147.592 115.592 144 120 144C124.408 144 128 147.592 128 152C128 156.408 124.408 160 120 160C115.592 160 112 156.408 112 152Z" fill="#4BA9FF" fill-opacity="0.2"/>
<path d="M248 128C234.768 128 224 138.768 224 152C224 165.232 234.768 176 248 176C261.232 176 272 165.232 272 152C272 138.768 261.232 128 248 128ZM248 160C243.584 160 240 156.408 240 152C240 147.592 243.584 144 248 144C252.416 144 256 147.592 256 152C256 156.408 252.416 160 248 160Z" fill="#4BA9FF" fill-opacity="0.2"/>
<path d="M184 224C154.176 224 125.76 236.632 106.04 258.664C103.096 261.96 103.376 267.016 106.664 269.96C109.96 272.912 115.016 272.624 117.96 269.336C134.648 250.688 158.72 240 184 240C209.28 240 233.352 250.688 250.04 269.336C251.616 271.104 253.808 272 256 272C257.896 272 259.816 271.328 261.336 269.96C264.624 267.016 264.904 261.96 261.96 258.664C242.24 236.64 213.832 224 184 224Z" fill="#4BA9FF" fill-opacity="0.2"/>
</svg>
