<svg width="26" height="26" viewBox="0 0 26 26" fill="none" xmlns="http://www.w3.org/2000/svg">
<path d="M24.1366 1.59756C23.2573 0.718359 22.0884 0.23418 20.845 0.234229L5.15493 0.234131C3.91152 0.23418 2.74258 0.718408 1.86338 1.59761C0.98418 2.47681 0.5 3.64575 0.500098 4.88906L0.5 20.5792C0.500098 23.1459 2.58833 25.2341 5.15498 25.2341H20.845C23.4117 25.2341 25.5 23.1459 25.5 20.5791V4.88921C25.5 3.64575 25.0158 2.47676 24.1366 1.59756ZM8.59883 9.03897L12.482 5.15566C12.6193 5.01831 12.8057 4.94111 12.9999 4.94111C13.1941 4.94111 13.3804 5.01826 13.5177 5.15566L17.4009 9.03872C17.687 9.32471 17.687 9.78848 17.401 10.0745C17.1149 10.3605 16.6512 10.3606 16.3651 10.0745L13.7322 7.4416L13.7323 15.255C13.7323 15.6595 13.4044 15.9874 12.9999 15.9874C12.5953 15.9874 12.2674 15.6595 12.2674 15.255L12.2673 7.4419L9.63457 10.0748C9.49155 10.2178 9.3041 10.2893 9.1167 10.2893C8.9292 10.2893 8.7418 10.2178 8.59878 10.0748C8.31279 9.78877 8.31279 9.32505 8.59883 9.03897ZM20.0606 20.5271H5.9395C5.53506 20.5271 5.20708 20.1992 5.20708 19.7947C5.20708 19.3902 5.53506 19.0623 5.9395 19.0623H20.0606C20.4651 19.0623 20.7931 19.3902 20.7931 19.7947C20.793 20.1992 20.4651 20.5271 20.0606 20.5271Z" fill="white"/>
</svg>
